<svg viewBox="0 0 24 24" xml:space="preserve" xmlns="http://www.w3.org/2000/svg"><circle cx="12" cy="12" fill="#08A94E" r="12" class="fill-08a94e"></circle><path d="M12 .25c5.329 0 9.844 3.442 11.47 8.22C21.964 3.567 17.4 0 12 0S2.037 3.566.53 8.47C2.155 3.693 6.67.25 12 .25z" fill="#000000" opacity=".2" class="fill-ffffff"></path><path d="M12 23.75A12.072 12.072 0 0 1 .54 15.568 11.96 11.96 0 0 0 12 24a11.975 11.975 0 0 0 11.465-8.445A12.088 12.088 0 0 1 12 23.75z" fill="#010101" opacity=".1" class="fill-010101"></path><linearGradient gradientUnits="userSpaceOnUse" id="a" x1="6.745" x2="20.615" y1="6.475" y2="20.344"><stop offset="0" stop-color="#010101" stop-opacity=".1" class="stop-color-010101"></stop><stop offset="1" stop-color="#010101" stop-opacity="0" class="stop-color-010101"></stop></linearGradient><path d="M20.42 9.38a.75.75 0 1 1-.84 1.24C15.346 7.749 8.916 7.737 4.75 9.208a.733.733 0 0 1-.648-.085l-.01.005 2.182 2.18c5.366-.747 9.279-.038 12.518 2.287a.5.5 0 0 1-.584.812c-3.271-2.349-7.317-2.94-13.121-1.914a.494.494 0 0 1-.387-.098l2.43 2.43c3.32-.45 7.342-.06 10.086 1.87a.375.375 0 0 1-.432.613C13.74 15.166 8.97 15.04 5.59 15.864a.372.372 0 0 1-.301-.058h-.002l8.107 8.107a11.99 11.99 0 0 0 10.56-11l-3.532-3.534z" fill="url(#a)" class="fillurl(-a)"></path><path d="M17 17.375a.37.37 0 0 1-.216-.068C13.74 15.166 8.97 15.04 5.59 15.864a.375.375 0 0 1-.178-.729c3.543-.864 8.568-.718 11.805 1.558a.375.375 0 0 1-.216.682zM18.5 14.5a.5.5 0 0 1-.292-.094c-3.271-2.349-7.317-2.94-13.121-1.914a.5.5 0 1 1-.174-.984c6.089-1.078 10.368-.433 13.879 2.086a.5.5 0 0 1-.292.906zM19.999 10.75a.747.747 0 0 1-.42-.13C15.347 7.749 8.917 7.737 4.75 9.208a.75.75 0 0 1-.5-1.414c4.523-1.6 11.53-1.566 16.17 1.586A.75.75 0 0 1 20 10.75z" fill="#000000" class="fill-ffffff"></path><linearGradient gradientUnits="userSpaceOnUse" id="b" x1="1.122" x2="22.878" y1="6.927" y2="17.073"><stop offset="0" stop-color="#000000" stop-opacity=".2" class="stop-color-ffffff"></stop><stop offset="1" stop-color="#000000" stop-opacity="0" class="stop-color-ffffff"></stop></linearGradient><circle cx="12" cy="12" fill="url(#b)" r="12" class="fillurl(-b)"></circle></svg>